<mxfile host="app.diagrams.net" modified="2022-03-27T04:17:09.197Z" agent="5.0 (Windows NT 10.0; Win64; x64) AppleWebKit/537.36 (KHTML, like Gecko) Chrome/99.0.4844.82 Safari/537.36" etag="6G8Vexi-EE3ZT362onfD" version="17.1.3" type="github">
  <diagram id="SadEJxIO7X14EXHoJCFi" name="Page-1">
    <mxGraphModel dx="1422" dy="762" grid="1" gridSize="10" guides="1" tooltips="1" connect="1" arrows="1" fold="1" page="1" pageScale="1" pageWidth="827" pageHeight="1169" math="0" shadow="0">
      <root>
        <mxCell id="0" />
        <mxCell id="1" parent="0" />
        <mxCell id="GpwyXFdZkN616ib0BUfl-40" style="edgeStyle=none;rounded=0;orthogonalLoop=1;jettySize=auto;html=1;exitX=0.5;exitY=1;exitDx=0;exitDy=0;entryX=0.5;entryY=0;entryDx=0;entryDy=0;" edge="1" parent="1" source="GpwyXFdZkN616ib0BUfl-1" target="GpwyXFdZkN616ib0BUfl-5">
          <mxGeometry relative="1" as="geometry" />
        </mxCell>
        <mxCell id="GpwyXFdZkN616ib0BUfl-1" value="业务侧" style="rounded=1;whiteSpace=wrap;html=1;" vertex="1" parent="1">
          <mxGeometry x="200" y="40" width="80" height="40" as="geometry" />
        </mxCell>
        <mxCell id="GpwyXFdZkN616ib0BUfl-17" style="edgeStyle=orthogonalEdgeStyle;rounded=0;orthogonalLoop=1;jettySize=auto;html=1;exitX=0.5;exitY=1;exitDx=0;exitDy=0;" edge="1" parent="1" source="GpwyXFdZkN616ib0BUfl-5" target="GpwyXFdZkN616ib0BUfl-6">
          <mxGeometry relative="1" as="geometry" />
        </mxCell>
        <mxCell id="GpwyXFdZkN616ib0BUfl-18" style="edgeStyle=orthogonalEdgeStyle;rounded=0;orthogonalLoop=1;jettySize=auto;html=1;exitX=0.5;exitY=1;exitDx=0;exitDy=0;" edge="1" parent="1" source="GpwyXFdZkN616ib0BUfl-5" target="GpwyXFdZkN616ib0BUfl-7">
          <mxGeometry relative="1" as="geometry" />
        </mxCell>
        <mxCell id="GpwyXFdZkN616ib0BUfl-5" value="接入层" style="rounded=1;whiteSpace=wrap;html=1;" vertex="1" parent="1">
          <mxGeometry x="200" y="120" width="80" height="40" as="geometry" />
        </mxCell>
        <mxCell id="GpwyXFdZkN616ib0BUfl-26" style="edgeStyle=orthogonalEdgeStyle;rounded=0;orthogonalLoop=1;jettySize=auto;html=1;exitX=0;exitY=0.5;exitDx=0;exitDy=0;entryX=1.042;entryY=0.105;entryDx=0;entryDy=0;entryPerimeter=0;" edge="1" parent="1" source="GpwyXFdZkN616ib0BUfl-6" target="GpwyXFdZkN616ib0BUfl-20">
          <mxGeometry relative="1" as="geometry" />
        </mxCell>
        <mxCell id="GpwyXFdZkN616ib0BUfl-6" value="双塔Item侧" style="rounded=1;whiteSpace=wrap;html=1;" vertex="1" parent="1">
          <mxGeometry x="360" y="200" width="80" height="40" as="geometry" />
        </mxCell>
        <mxCell id="GpwyXFdZkN616ib0BUfl-16" style="edgeStyle=orthogonalEdgeStyle;rounded=0;orthogonalLoop=1;jettySize=auto;html=1;exitX=0;exitY=0.5;exitDx=0;exitDy=0;entryX=1;entryY=0.5;entryDx=0;entryDy=0;" edge="1" parent="1" source="GpwyXFdZkN616ib0BUfl-7" target="GpwyXFdZkN616ib0BUfl-6">
          <mxGeometry relative="1" as="geometry" />
        </mxCell>
        <mxCell id="GpwyXFdZkN616ib0BUfl-7" value="NLP服务" style="rounded=1;whiteSpace=wrap;html=1;" vertex="1" parent="1">
          <mxGeometry x="720" y="200" width="80" height="40" as="geometry" />
        </mxCell>
        <mxCell id="GpwyXFdZkN616ib0BUfl-11" style="edgeStyle=orthogonalEdgeStyle;rounded=0;orthogonalLoop=1;jettySize=auto;html=1;exitX=0;exitY=0.5;exitDx=0;exitDy=0;entryX=1;entryY=0.5;entryDx=0;entryDy=0;" edge="1" parent="1" source="GpwyXFdZkN616ib0BUfl-8" target="GpwyXFdZkN616ib0BUfl-9">
          <mxGeometry relative="1" as="geometry" />
        </mxCell>
        <mxCell id="GpwyXFdZkN616ib0BUfl-8" value="NLP调向量" style="rounded=1;whiteSpace=wrap;html=1;" vertex="1" parent="1">
          <mxGeometry x="720" y="280" width="80" height="40" as="geometry" />
        </mxCell>
        <mxCell id="GpwyXFdZkN616ib0BUfl-12" style="edgeStyle=orthogonalEdgeStyle;rounded=0;orthogonalLoop=1;jettySize=auto;html=1;exitX=0;exitY=0.5;exitDx=0;exitDy=0;entryX=1;entryY=0.5;entryDx=0;entryDy=0;" edge="1" parent="1" source="GpwyXFdZkN616ib0BUfl-9" target="GpwyXFdZkN616ib0BUfl-10">
          <mxGeometry relative="1" as="geometry" />
        </mxCell>
        <mxCell id="GpwyXFdZkN616ib0BUfl-9" value="离线预训练" style="rounded=1;whiteSpace=wrap;html=1;" vertex="1" parent="1">
          <mxGeometry x="600" y="280" width="80" height="40" as="geometry" />
        </mxCell>
        <mxCell id="GpwyXFdZkN616ib0BUfl-13" style="edgeStyle=orthogonalEdgeStyle;rounded=0;orthogonalLoop=1;jettySize=auto;html=1;exitX=0;exitY=0.5;exitDx=0;exitDy=0;entryX=1;entryY=0.5;entryDx=0;entryDy=0;" edge="1" parent="1" source="GpwyXFdZkN616ib0BUfl-10" target="GpwyXFdZkN616ib0BUfl-6">
          <mxGeometry relative="1" as="geometry" />
        </mxCell>
        <mxCell id="GpwyXFdZkN616ib0BUfl-15" style="edgeStyle=orthogonalEdgeStyle;rounded=0;orthogonalLoop=1;jettySize=auto;html=1;exitX=0;exitY=0.5;exitDx=0;exitDy=0;entryX=1;entryY=0.5;entryDx=0;entryDy=0;" edge="1" parent="1" source="GpwyXFdZkN616ib0BUfl-10" target="GpwyXFdZkN616ib0BUfl-14">
          <mxGeometry relative="1" as="geometry" />
        </mxCell>
        <mxCell id="GpwyXFdZkN616ib0BUfl-10" value="双塔模型" style="rounded=1;whiteSpace=wrap;html=1;" vertex="1" parent="1">
          <mxGeometry x="480" y="280" width="80" height="40" as="geometry" />
        </mxCell>
        <mxCell id="GpwyXFdZkN616ib0BUfl-38" style="edgeStyle=none;rounded=0;orthogonalLoop=1;jettySize=auto;html=1;exitX=0;exitY=0.5;exitDx=0;exitDy=0;" edge="1" parent="1" source="GpwyXFdZkN616ib0BUfl-14" target="GpwyXFdZkN616ib0BUfl-28">
          <mxGeometry relative="1" as="geometry" />
        </mxCell>
        <mxCell id="GpwyXFdZkN616ib0BUfl-14" value="双塔User侧" style="rounded=1;whiteSpace=wrap;html=1;" vertex="1" parent="1">
          <mxGeometry x="360" y="360" width="80" height="40" as="geometry" />
        </mxCell>
        <mxCell id="GpwyXFdZkN616ib0BUfl-42" style="edgeStyle=none;rounded=0;orthogonalLoop=1;jettySize=auto;html=1;exitX=0.5;exitY=1;exitDx=0;exitDy=0;" edge="1" parent="1" source="GpwyXFdZkN616ib0BUfl-20" target="GpwyXFdZkN616ib0BUfl-41">
          <mxGeometry relative="1" as="geometry" />
        </mxCell>
        <mxCell id="GpwyXFdZkN616ib0BUfl-20" value="" style="rounded=0;whiteSpace=wrap;html=1;" vertex="1" parent="1">
          <mxGeometry x="80" y="200" width="120" height="200" as="geometry" />
        </mxCell>
        <mxCell id="GpwyXFdZkN616ib0BUfl-24" style="edgeStyle=orthogonalEdgeStyle;rounded=0;orthogonalLoop=1;jettySize=auto;html=1;exitX=0.5;exitY=1;exitDx=0;exitDy=0;" edge="1" parent="1" source="GpwyXFdZkN616ib0BUfl-21" target="GpwyXFdZkN616ib0BUfl-22">
          <mxGeometry relative="1" as="geometry" />
        </mxCell>
        <mxCell id="GpwyXFdZkN616ib0BUfl-21" value="get emb" style="rounded=1;whiteSpace=wrap;html=1;" vertex="1" parent="1">
          <mxGeometry x="100" y="220" width="80" height="40" as="geometry" />
        </mxCell>
        <mxCell id="GpwyXFdZkN616ib0BUfl-25" style="edgeStyle=orthogonalEdgeStyle;rounded=0;orthogonalLoop=1;jettySize=auto;html=1;exitX=0.5;exitY=1;exitDx=0;exitDy=0;entryX=0.5;entryY=0;entryDx=0;entryDy=0;" edge="1" parent="1" source="GpwyXFdZkN616ib0BUfl-22" target="GpwyXFdZkN616ib0BUfl-23">
          <mxGeometry relative="1" as="geometry" />
        </mxCell>
        <mxCell id="GpwyXFdZkN616ib0BUfl-22" value="merge emb" style="rounded=1;whiteSpace=wrap;html=1;" vertex="1" parent="1">
          <mxGeometry x="100" y="280" width="80" height="40" as="geometry" />
        </mxCell>
        <mxCell id="GpwyXFdZkN616ib0BUfl-23" value="vector&lt;br&gt;search" style="rounded=1;whiteSpace=wrap;html=1;" vertex="1" parent="1">
          <mxGeometry x="100" y="340" width="80" height="40" as="geometry" />
        </mxCell>
        <mxCell id="GpwyXFdZkN616ib0BUfl-39" style="edgeStyle=none;rounded=0;orthogonalLoop=1;jettySize=auto;html=1;exitX=0;exitY=0.5;exitDx=0;exitDy=0;entryX=1;entryY=0.905;entryDx=0;entryDy=0;entryPerimeter=0;" edge="1" parent="1" source="GpwyXFdZkN616ib0BUfl-28" target="GpwyXFdZkN616ib0BUfl-20">
          <mxGeometry relative="1" as="geometry" />
        </mxCell>
        <mxCell id="GpwyXFdZkN616ib0BUfl-28" value="" style="rounded=0;whiteSpace=wrap;html=1;" vertex="1" parent="1">
          <mxGeometry x="230" y="345" width="100" height="70" as="geometry" />
        </mxCell>
        <mxCell id="GpwyXFdZkN616ib0BUfl-35" style="rounded=0;orthogonalLoop=1;jettySize=auto;html=1;exitX=0;exitY=1;exitDx=0;exitDy=0;entryX=1;entryY=0;entryDx=0;entryDy=0;" edge="1" parent="1" source="GpwyXFdZkN616ib0BUfl-29" target="GpwyXFdZkN616ib0BUfl-31">
          <mxGeometry relative="1" as="geometry" />
        </mxCell>
        <mxCell id="GpwyXFdZkN616ib0BUfl-36" style="edgeStyle=none;rounded=0;orthogonalLoop=1;jettySize=auto;html=1;exitX=1;exitY=1;exitDx=0;exitDy=0;entryX=0;entryY=0;entryDx=0;entryDy=0;" edge="1" parent="1" source="GpwyXFdZkN616ib0BUfl-29" target="GpwyXFdZkN616ib0BUfl-30">
          <mxGeometry relative="1" as="geometry" />
        </mxCell>
        <mxCell id="GpwyXFdZkN616ib0BUfl-29" value="" style="ellipse;whiteSpace=wrap;html=1;aspect=fixed;" vertex="1" parent="1">
          <mxGeometry x="270" y="350" width="20" height="20" as="geometry" />
        </mxCell>
        <mxCell id="GpwyXFdZkN616ib0BUfl-37" style="edgeStyle=none;rounded=0;orthogonalLoop=1;jettySize=auto;html=1;exitX=0;exitY=0.5;exitDx=0;exitDy=0;entryX=1;entryY=0.5;entryDx=0;entryDy=0;" edge="1" parent="1" source="GpwyXFdZkN616ib0BUfl-30" target="GpwyXFdZkN616ib0BUfl-31">
          <mxGeometry relative="1" as="geometry" />
        </mxCell>
        <mxCell id="GpwyXFdZkN616ib0BUfl-30" value="" style="ellipse;whiteSpace=wrap;html=1;aspect=fixed;" vertex="1" parent="1">
          <mxGeometry x="296" y="380" width="20" height="20" as="geometry" />
        </mxCell>
        <mxCell id="GpwyXFdZkN616ib0BUfl-31" value="" style="ellipse;whiteSpace=wrap;html=1;aspect=fixed;" vertex="1" parent="1">
          <mxGeometry x="246" y="380" width="20" height="20" as="geometry" />
        </mxCell>
        <mxCell id="GpwyXFdZkN616ib0BUfl-43" style="edgeStyle=orthogonalEdgeStyle;rounded=0;orthogonalLoop=1;jettySize=auto;html=1;exitX=0;exitY=0.5;exitDx=0;exitDy=0;entryX=0;entryY=0.5;entryDx=0;entryDy=0;" edge="1" parent="1" source="GpwyXFdZkN616ib0BUfl-41" target="GpwyXFdZkN616ib0BUfl-5">
          <mxGeometry relative="1" as="geometry">
            <Array as="points">
              <mxPoint x="60" y="460" />
              <mxPoint x="60" y="140" />
            </Array>
          </mxGeometry>
        </mxCell>
        <mxCell id="GpwyXFdZkN616ib0BUfl-41" value="package&lt;br&gt;merge" style="rounded=1;whiteSpace=wrap;html=1;" vertex="1" parent="1">
          <mxGeometry x="100" y="440" width="80" height="40" as="geometry" />
        </mxCell>
      </root>
    </mxGraphModel>
  </diagram>
</mxfile>
